<?xml version="1.0" encoding="utf-8"?>
<!-- Generator: Adobe Illustrator 26.0.0, SVG Export Plug-In . SVG Version: 6.00 Build 0)  -->
<svg version="1.1" id="Слой_1" xmlns="http://www.w3.org/2000/svg" xmlns:xlink="http://www.w3.org/1999/xlink" x="0px" y="0px"
	 viewBox="0 0 140 30" style="enable-background:new 0 0 140 30;" xml:space="preserve">
<style type="text/css">
	.st0{clip-path:url(#SVGID_00000117637637374048423920000010823654510151093889_);}
	.st1{fill:#1E212C;}
	.st2{fill:#17696A;}
</style>
<g>
	<defs>
		<rect id="SVGID_1_" y="3.28" width="132.14" height="22.36"/>
	</defs>
	<clipPath id="SVGID_00000021104482569946560240000017415053321509660801_">
		<use xlink:href="#SVGID_1_"  style="overflow:visible;"/>
	</clipPath>
	<g style="clip-path:url(#SVGID_00000021104482569946560240000017415053321509660801_);">
		<path class="st1" d="M0,14.56C0,8.36,3.35,4.6,8.84,4.6c4.17,0,7.52,2.54,8.13,6.3c0.1,0.41-0.2,0.71-0.61,0.71h-2.64
			c-0.3,0-0.51-0.2-0.61-0.51c-0.51-1.93-2.13-3.15-4.27-3.15c-2.95,0-4.78,2.54-4.78,6.61s1.83,6.61,4.88,6.61
			c2.13,0,3.66-1.12,4.27-2.95c0.1-0.3,0.3-0.51,0.61-0.51h2.64c0.41,0,0.71,0.41,0.61,0.71c-0.61,3.66-3.86,6.1-8.13,6.1
			C3.35,24.53,0,20.66,0,14.56z"/>
		<path class="st1" d="M24.7,24.02h-2.95c-0.3,0-0.51-0.2-0.51-0.51V5.92c0-0.41,0.41-0.81,0.81-0.81h7.12c4.17,0,6.71,2.34,6.71,6
			c0,2.13-1.02,4.07-2.74,5.08c-0.41,0.2-0.51,0.71-0.3,1.02l3.15,6c0.2,0.3-0.1,0.71-0.41,0.71h-3.35c-0.2,0-0.41-0.1-0.51-0.3
			l-2.95-6.1c-0.1-0.3-0.41-0.41-0.71-0.41h-2.34c-0.3,0-0.51,0.2-0.51,0.51v6C25.31,23.81,25,24.02,24.7,24.02z M25.31,13.65
			c0,0.3,0.2,0.51,0.51,0.51h3.05c2.03,0,3.15-1.12,3.15-2.95s-1.22-2.95-3.15-2.95h-2.95c-0.3,0-0.51,0.2-0.51,0.51v4.88H25.31z"/>
		<path class="st1" d="M52.35,24.02H41.17c-0.41,0-0.71-0.3-0.71-0.71V5.82c0-0.41,0.3-0.71,0.71-0.71h11.18
			c0.41,0,0.71,0.3,0.71,0.71v1.93c0,0.41-0.3,0.71-0.71,0.71h-7.42c-0.3,0-0.51,0.2-0.51,0.51v3.46c0,0.3,0.2,0.51,0.51,0.51h6.91
			c0.41,0,0.71,0.3,0.71,0.71v1.73c0,0.41-0.3,0.71-0.71,0.71h-6.91c-0.3,0-0.51,0.2-0.51,0.51v3.86c0,0.3,0.2,0.51,0.51,0.51h7.42
			c0.41,0,0.71,0.3,0.71,0.71v1.93C53.06,23.71,52.75,24.02,52.35,24.02z"/>
		<path class="st1" d="M68.1,19.44h-5.79c-0.3,0-0.51,0.2-0.61,0.41l-1.12,3.76c-0.1,0.3-0.3,0.41-0.61,0.41h-2.64
			c-0.41,0-0.71-0.41-0.61-0.81l6.1-17.69c0.1-0.2,0.3-0.41,0.61-0.41h3.76c0.3,0,0.51,0.2,0.61,0.41l6.1,17.69
			c0.1,0.41-0.2,0.81-0.61,0.81h-2.95c-0.3,0-0.51-0.2-0.61-0.41l-1.12-3.76C68.61,19.65,68.31,19.44,68.1,19.44z M63.12,16.5h4.17
			c0.2,0,0.3-0.2,0.3-0.41l-2.24-7.12h-0.2l-2.24,7.12C62.82,16.29,62.92,16.5,63.12,16.5z"/>
		<path class="st1" d="M80.3,23.31V8.87c0-0.3-0.2-0.51-0.51-0.51h-4.47c-0.41,0-0.81-0.3-0.81-0.81V5.82c0-0.41,0.3-0.81,0.81-0.81
			h13.82c0.41,0,0.81,0.3,0.81,0.81v1.73c0,0.41-0.3,0.81-0.81,0.81h-4.47c-0.3,0-0.51,0.2-0.51,0.51v14.54
			c0,0.41-0.3,0.71-0.71,0.71h-2.54C80.61,24.02,80.3,23.71,80.3,23.31z"/>
		<path class="st1" d="M105.51,24.02H94.33c-0.41,0-0.71-0.3-0.71-0.71V5.82c0-0.41,0.3-0.71,0.71-0.71h11.18
			c0.41,0,0.71,0.3,0.71,0.71v1.93c0,0.41-0.3,0.71-0.71,0.71h-7.42c-0.3,0-0.51,0.2-0.51,0.51v3.46c0,0.3,0.2,0.51,0.51,0.51H105
			c0.41,0,0.71,0.3,0.71,0.71v1.73c0,0.41-0.3,0.71-0.71,0.71h-6.91c-0.3,0-0.51,0.2-0.51,0.51v3.86c0,0.3,0.2,0.51,0.51,0.51h7.42
			c0.41,0,0.71,0.3,0.71,0.71v1.93C106.22,23.71,105.91,24.02,105.51,24.02z"/>
	</g>
</g>
<path class="st2" d="M122.01,13l-9.17-11.98c-0.59-0.59-1.33-0.89-2.07-0.89s-1.48,0.3-2.07,0.89c-0.74,0.84-0.95,1.98-0.64,3
	c0.13,0.41,0.34,0.8,0.64,1.14l7.25,9.76l-7.25,9.76c-1.04,1.18-1.04,2.96,0,4.14c0.59,0.59,1.33,0.89,2.07,0.89s1.48-0.3,2.07-0.89
	l9.17-11.98C123.04,15.96,123.04,14.18,122.01,13z"/>
<path class="st2" d="M125.92,13l9.17-11.98c0.59-0.59,1.33-0.89,2.07-0.89s1.48,0.3,2.07,0.89c1.04,1.18,1.04,2.96,0,4.14
	l-7.25,9.76l7.25,9.76c1.04,1.18,1.04,2.96,0,4.14c-0.59,0.59-1.33,0.89-2.07,0.89s-1.48-0.3-2.07-0.89l-9.17-11.98
	C124.88,15.96,124.88,14.18,125.92,13z"/>
</svg>
