<?xml version="1.0" standalone="no"?>
<!DOCTYPE svg PUBLIC "-//W3C//DTD SVG 20010904//EN"
 "http://www.w3.org/TR/2001/REC-SVG-20010904/DTD/svg10.dtd">
<svg version="1.0" xmlns="http://www.w3.org/2000/svg"
 width="84.000000pt" height="84.000000pt" viewBox="0 0 84.000000 84.000000"
 preserveAspectRatio="xMidYMid meet">
<metadata>
Created by potrace 1.14, written by Peter Selinger 2001-2017
</metadata>
<g transform="translate(0.000000,84.000000) scale(0.100000,-0.100000)"
fill="#000000" stroke="none">
<path d="M350 820 c-179 -36 -280 -185 -280 -412 0 -215 114 -368 294 -396
177 -28 333 45 390 183 34 80 19 98 -75 94 -50 -3 -52 -4 -81 -51 -44 -72
-120 -104 -199 -87 -58 13 -96 43 -123 97 -83 166 -25 395 109 431 90 24 189
-25 216 -106 6 -18 16 -33 22 -34 131 -10 150 -4 142 43 -9 50 -55 127 -99
164 -72 62 -214 95 -316 74z"/>
</g>
</svg>
